PathFileType	4	(X/Y/Z)	SUBJ26_0_static_RCNL2025.trc
DataRate	CameraRate	NumFrames	NumMarkers	Units	OrigDataRate	OrigDataStartFrame	OrigNumFrames
100	100	12	25	mm	100	15	101
Frame#	Time	R_Shoulder			L_Shoulder			C7			J_Notch			R_Elbow			L_Elbow			R_Wrist			L_Wrist			R_Asis			L_Asis			Sacral			Thoracic			Sternum			R_Thigh_Lateral			R_Knee_Lateral			R_Shank_Lateral			R_Ankle_Lateral			R_Heel			R_Toe			L_Thigh_Lateral			L_Knee_Lateral			L_Shank_Lateral			L_Ankle_Lateral			L_Heel			L_Toe		
		X1	Y1	Z1	X2	Y2	Z2	X3	Y3	Z3	X4	Y4	Z4	X5	Y5	Z5	X6	Y6	Z6	X7	Y7	Z7	X8	Y8	Z8	X9	Y9	Z9	X10	Y10	Z10	X11	Y11	Z11	X12	Y12	Z12	X13	Y13	Z13	X14	Y14	Z14	X15	Y15	Z15	X16	Y16	Z16	X17	Y17	Z17	X18	Y18	Z18	X19	Y19	Z19	X20	Y20	Z20	X21	Y21	Z21	X22	Y22	Z22	X23	Y23	Z23	X24	Y24	Z24	X25	Y25	Z25
15	0.14000000	-217.220123	1341.819824	-71.281357	-238.667755	1351.934570	-391.584412	-304.889435	1387.026245	-217.446686	-151.245331	1304.267456	-240.026627	-287.076782	1020.164490	23.319273	-298.384369	1029.407104	-496.683105	-205.813889	784.356964	65.997700	-209.324486	803.237152	-540.273560	-139.604080	935.952759	-102.131561	-164.241989	930.786621	-403.184570	-355.948303	924.115967	-226.989868	-345.738251	1037.451172	-228.974899	-78.579407	1049.576782	-236.549194	-252.807953	593.177673	-50.658192	-271.600647	446.555298	-121.982964	-297.164642	297.042175	-79.449326	-302.160278	55.350784	-151.222000	-353.008392	40.746975	-211.596573	-178.304703	44.939732	-172.228912	-244.152008	613.499573	-436.528839	-278.652496	450.260193	-356.029510	-290.299835	268.166656	-420.558533	-296.260223	61.155350	-329.134003	-357.566803	38.952034	-280.323303	-175.302460	43.473797	-290.079529
16	0.15000000	-217.112778	1341.742920	-70.936256	-238.826279	1351.920532	-391.227478	-304.925720	1386.980469	-217.076736	-151.109482	1304.267944	-239.727859	-286.978149	1020.056396	23.615355	-298.521393	1029.445312	-496.338745	-205.733139	784.251526	66.167934	-209.358124	803.284943	-539.974121	-139.547012	935.921143	-102.065674	-164.435532	930.908447	-403.038422	-355.973389	924.099365	-226.703140	-345.678589	1037.412231	-228.632538	-78.735542	1049.621094	-236.339813	-252.687241	592.984009	-50.500107	-271.745300	446.539551	-121.867058	-297.426819	297.035248	-79.321106	-302.250824	55.324299	-151.170517	-352.952515	40.647427	-211.517288	-178.332886	44.902355	-172.219025	-244.306839	613.536011	-436.513763	-278.743286	450.237213	-356.016785	-290.285400	268.184143	-420.480621	-296.397797	61.361012	-329.136902	-357.432343	38.839947	-280.326630	-175.301834	43.432858	-290.062805
17	0.16000000	-217.000137	1341.640991	-70.602501	-238.893311	1351.982422	-390.867523	-304.985870	1386.965698	-216.616714	-151.129944	1304.264038	-239.440033	-286.803406	1019.956665	23.879658	-298.607880	1029.495728	-495.993530	-205.643646	784.129761	66.414558	-209.374611	803.391479	-539.666046	-139.488068	935.967529	-102.002876	-164.540482	930.937134	-402.924805	-355.905579	924.093079	-226.430771	-345.687500	1037.356079	-228.336884	-78.728622	1049.580322	-236.171082	-252.699768	593.019226	-50.494488	-271.924774	446.544891	-121.752838	-297.586548	296.983276	-79.228981	-302.367676	55.294270	-151.067947	-352.961365	40.650673	-211.486404	-178.353775	44.881100	-172.178345	-244.470703	613.528442	-436.360138	-278.774841	450.313721	-355.931519	-290.216614	268.149536	-420.471802	-296.271851	61.194202	-329.090820	-357.232910	38.652542	-280.530426	-175.390991	43.409595	-290.035675
18	0.17000000	-216.961395	1341.586670	-70.193398	-239.007660	1352.067993	-390.396698	-305.015839	1386.962036	-216.223267	-151.274506	1304.193481	-239.083694	-286.675262	1019.811157	24.193110	-298.709930	1029.579346	-495.602417	-205.553032	784.005829	66.599899	-209.430229	803.499268	-539.295959	-139.480820	935.967529	-101.934814	-164.788834	930.912537	-402.852081	-355.897125	924.107849	-226.204346	-345.702850	1037.397217	-228.056274	-78.789291	1049.550537	-236.075974	-252.612167	592.960266	-50.403721	-272.092590	446.627808	-121.614532	-297.708221	297.006195	-79.140419	-302.351105	55.301899	-150.999222	-352.963562	40.650318	-211.458527	-178.347931	44.896919	-172.188187	-244.623093	613.582947	-436.311707	-278.829468	450.325439	-355.812866	-290.142273	268.077911	-420.231506	-296.245270	61.167068	-329.060242	-357.529419	38.924717	-280.355316	-175.408585	43.412540	-290.053436
19	0.18000000	-216.838638	1341.491577	-69.945824	-239.117889	1352.157471	-390.012817	-304.934235	1386.968750	-215.784973	-151.357483	1304.155151	-238.742569	-286.576599	1019.809326	24.537958	-298.829987	1029.697876	-495.261322	-205.492081	783.864227	66.819490	-209.437660	803.620911	-539.001801	-139.474457	935.874817	-101.808968	-164.846893	930.982056	-402.735321	-355.974640	924.189514	-225.997574	-345.741882	1037.361694	-227.837952	-78.798279	1049.498169	-235.897354	-252.428253	592.898438	-50.221130	-272.178314	446.622284	-121.528824	-297.809143	297.026947	-79.074387	-302.314880	55.291222	-150.978577	-353.035797	40.664913	-211.428131	-178.369278	44.845215	-172.180725	-244.730774	613.618286	-436.180481	-278.733826	450.283905	-355.670593	-290.131836	268.119263	-420.147522	-296.233215	61.156296	-329.036346	-357.558868	39.013893	-280.291107	-175.378723	43.410217	-290.051666
20	0.19000000	-216.692581	1341.451294	-69.560867	-239.217789	1352.204102	-389.529114	-304.915283	1387.012329	-215.298080	-151.392456	1304.141846	-238.419296	-286.485748	1019.677368	24.863283	-298.877838	1029.797119	-494.876373	-205.345650	783.796265	67.015886	-209.472763	803.685608	-538.735321	-139.417770	935.731628	-101.676155	-165.043121	931.053955	-402.599579	-355.987976	924.220215	-225.764420	-345.800934	1037.421997	-227.673996	-78.877777	1049.458252	-235.693497	-252.419006	592.865356	-50.174690	-272.248016	446.601837	-121.447723	-297.920380	297.028412	-78.955490	-302.358246	55.305336	-150.902008	-353.063202	40.704960	-211.398514	-178.400833	44.892822	-172.114700	-244.863708	613.662842	-436.078522	-278.715637	450.299561	-355.612457	-290.007111	268.281128	-420.215607	-296.204529	61.202549	-329.026306	-357.425476	38.896809	-280.313049	-175.359619	43.430382	-290.039825
21	0.20000000	-216.683182	1341.347778	-69.144951	-239.262589	1352.341919	-389.201385	-304.885651	1386.938843	-214.875031	-151.451202	1304.090698	-238.137192	-286.330627	1019.605835	25.167255	-298.963043	1029.913452	-494.528625	-205.183029	783.665680	67.240095	-209.518967	803.825531	-538.426056	-139.326736	935.667542	-101.568062	-165.074890	931.021484	-402.447113	-355.958710	924.178101	-225.536636	-345.726288	1037.408447	-227.456680	-78.800621	1049.468140	-235.586380	-252.429169	592.909180	-50.108406	-272.366058	446.639648	-121.349014	-297.985565	296.973267	-78.905212	-302.435516	55.286091	-150.870529	-352.993744	40.734684	-211.339767	-178.396545	44.911076	-172.136658	-245.016968	613.710876	-436.050690	-278.770599	450.342285	-355.595764	-290.074921	268.229126	-419.992126	-296.218323	61.218937	-329.000427	-357.499176	39.032600	-280.218384	-175.220215	43.370369	-289.872559
22	0.21000000	-216.556107	1341.276733	-68.785454	-239.318436	1352.425537	-388.887634	-304.882477	1386.964966	-214.336777	-151.509338	1304.089722	-237.833038	-286.183746	1019.488159	25.488564	-299.024567	1030.037964	-494.224792	-205.046379	783.539276	67.457001	-209.538879	803.983551	-538.242371	-139.342438	935.682190	-101.473167	-165.187454	931.115112	-402.336487	-356.014923	924.242920	-225.367004	-345.767944	1037.460815	-227.232620	-78.844711	1049.467529	-235.493896	-252.282715	592.868286	-49.961987	-272.447235	446.678680	-121.271912	-298.053467	297.007477	-78.843658	-302.458832	55.352905	-150.791809	-353.017395	40.787399	-211.305328	-178.397003	44.916008	-172.136948	-245.027908	613.773376	-435.942993	-278.777039	450.439301	-355.526367	-289.995331	268.226166	-419.937286	-296.204987	61.290646	-328.953552	-357.531494	39.012367	-280.190491	-175.256577	43.524055	-290.030396
23	0.22000000	-216.545822	1341.200928	-68.402145	-239.332230	1352.507324	-388.487183	-304.848389	1386.980957	-213.925919	-151.568695	1304.079346	-237.557327	-286.063507	1019.384338	25.790531	-299.151245	1030.178711	-493.919098	-204.918098	783.430695	67.670187	-209.506210	804.099731	-538.021332	-139.365784	935.567200	-101.426552	-165.360062	931.176025	-402.136810	-356.092407	924.249329	-225.174866	-345.865356	1037.491577	-227.016937	-78.942665	1049.459229	-235.392654	-252.223862	592.861023	-49.919865	-272.515594	446.656586	-121.130219	-298.105438	297.068024	-78.704079	-302.510193	55.322227	-150.758453	-353.020508	40.789631	-211.275253	-178.385101	44.934460	-172.139832	-245.103302	613.768066	-435.854889	-278.700775	450.398895	-355.416565	-289.971405	268.293488	-419.858368	-296.215271	61.326077	-328.936523	-357.525024	39.027355	-280.193237	-175.190491	43.551140	-290.014343
24	0.23000000	-216.541916	1341.057983	-67.995041	-239.379349	1352.558960	-388.154907	-304.889618	1386.965088	-213.440491	-151.533478	1304.132324	-237.335297	-285.919373	1019.243164	26.054100	-299.247467	1030.289429	-493.692841	-204.722511	783.285889	67.865147	-209.645042	804.178040	-537.777435	-139.487793	935.631226	-101.347733	-165.575867	931.143066	-401.974884	-356.226776	924.278687	-225.002960	-345.884094	1037.490601	-226.887985	-79.013542	1049.511841	-235.239578	-252.195496	592.973450	-49.869999	-272.548462	446.718353	-121.097588	-298.233063	297.058655	-78.674889	-302.557343	55.268970	-150.753601	-353.041473	40.765724	-211.278397	-178.422028	44.897789	-172.095703	-245.199921	613.864624	-435.748352	-278.699341	450.404205	-355.402191	-289.960693	268.274078	-419.806610	-296.206299	61.351101	-328.941742	-357.530182	39.048622	-280.169037	-175.173752	43.548336	-290.001404
25	0.24000000	-216.525925	1341.019653	-67.669518	-239.499863	1352.634033	-387.793274	-305.006378	1386.943604	-213.083801	-151.563934	1304.168091	-237.007538	-285.898346	1019.098206	26.246332	-299.367584	1030.386719	-493.382263	-204.495613	783.172729	68.050987	-209.746468	804.319031	-537.595276	-139.573105	935.520508	-101.323532	-165.686813	931.258911	-401.938354	-356.294312	924.317810	-224.790085	-345.939178	1037.524292	-226.681656	-79.086143	1049.526123	-235.155975	-252.283905	592.944824	-49.823906	-272.677612	446.696960	-120.985031	-298.279694	297.046997	-78.651520	-302.628143	55.286625	-150.708969	-353.108948	40.762604	-211.306259	-178.423676	44.896233	-172.067719	-245.191223	613.844543	-435.747345	-278.718536	450.410339	-355.340820	-289.870148	268.317078	-419.786163	-296.212708	61.328388	-328.937988	-357.380280	38.877930	-280.194855	-175.193436	43.541027	-289.990936
26	0.25000000	-216.478394	1340.880005	-67.330994	-239.565689	1352.730591	-387.467377	-305.042938	1386.998169	-212.743652	-151.609421	1304.172607	-236.700607	-285.850861	1018.980835	26.450077	-299.419891	1030.532837	-493.149750	-204.685493	783.291382	68.391645	-209.829834	804.423370	-537.460083	-139.777924	935.437866	-101.250351	-165.824524	931.232544	-401.801971	-356.250488	924.297119	-224.670197	-345.835052	1037.511353	-226.506927	-79.113892	1049.450439	-235.092804	-252.263092	592.862244	-49.800522	-272.784821	446.695312	-120.929649	-298.300385	296.939789	-78.679115	-302.626740	55.275921	-150.698822	-353.046539	40.693047	-211.251144	-178.403839	44.908855	-172.085892	-245.304901	613.788086	-435.659637	-278.790588	450.453156	-355.196655	-289.801117	268.345398	-419.787170	-296.210876	61.330997	-328.924469	-357.497498	39.052238	-280.181213	-175.274017	43.460358	-289.961517
